# Blender v3.6.15 OBJ File: ''
# www.blender.org
mtllib cube.mtl
o cube
v -0.500000 -0.500000 -0.500000
v 0.500000 -0.500000 -0.500000
v -0.500000 -0.500000 0.500000
v 0.500000 -0.500000 0.500000
v -0.500000 0.500000 0.500000
v 0.500000 0.500000 0.500000
v -0.500000 0.500000 -0.500000
v 0.500000 0.500000 -0.500000
vt 0.255471 0.755471
vt 0.494529 0.755471
vt 0.255471 0.994529
vt 0.494529 0.994529
vt 0.017348 0.759536
vt 0.240464 0.759536
vt 0.017348 0.982652
vt 0.240464 0.982652
vt 0.983349 0.975536
vt 0.766651 0.975536
vt 0.983349 0.758839
vt 0.766651 0.758839
vt 0.492509 0.507491
vt 0.492509 0.742509
vt 0.257491 0.507491
vt 0.257491 0.742509
vt 0.518068 0.766315
vt 0.718060 0.768068
vt 0.516315 0.966307
vt 0.716307 0.968060
vt 0.022975 0.522975
vt 0.234837 0.522975
vt 0.022975 0.734837
vt 0.234837 0.734837
vn 0.0000 -1.0000 0.0000
vn 0.0000 0.0000 1.0000
vn 0.0000 1.0000 -0.0000
vn 0.0000 -0.0000 -1.0000
vn 1.0000 0.0000 0.0000
vn -1.0000 0.0000 0.0000
usemtl cube
s 1
f 1/1/1 2/2/1 3/3/1
f 3/3/1 2/2/1 4/4/1
f 3/5/2 4/6/2 5/7/2
f 5/7/2 4/6/2 6/8/2
f 5/9/3 6/10/3 7/11/3
f 7/11/3 6/10/3 8/12/3
f 7/13/4 8/14/4 1/15/4
f 1/15/4 8/14/4 2/16/4
f 2/17/5 8/18/5 4/19/5
f 4/19/5 8/18/5 6/20/5
f 7/21/6 1/22/6 5/23/6
f 5/23/6 1/22/6 3/24/6
